<svg width="171" height="193" viewBox="0 0 171 193" fill="none" xmlns="http://www.w3.org/2000/svg">
<circle cx="85.0357" cy="79.2047" r="78.3753" fill="#E25E68"/>
<g clip-path="url(#clip0)">
<mask id="mask0" mask-type="alpha" maskUnits="userSpaceOnUse" x="6" y="0" width="158" height="158">
<circle cx="85.0357" cy="79.2047" r="78.3753" fill="#65D398"/>
</mask>
<g mask="url(#mask0)">
<path fill-rule="evenodd" clip-rule="evenodd" d="M63.0797 114.497C61.7058 114.586 59.584 115.526 58.3039 116.145C57.262 116.646 56.8159 115.957 55.7512 116.403C52.722 117.673 48.6128 120.398 44.9067 122.119C41.1195 123.879 37.4007 124.581 34.9114 125.924C33.6034 126.629 31.7554 128.229 30.5184 129.055C29.152 129.97 25.9859 132.302 25.2482 133.767C23.8388 136.579 17.6459 153.629 17.6459 153.629L20.9413 192.284L153.03 184.968L153.227 154.174C153.425 154.27 147.407 138.194 146.381 136.635C146.008 136.064 146.353 135.628 145.727 134.855C144.89 133.818 143.706 133.055 143.481 132.89C139.199 129.757 121.972 121.595 114.643 118.142C113.317 117.518 110.907 115.959 109.444 115.866C101.091 115.328 78.6139 114.692 63.0797 114.497Z" fill="#262533"/>
<path fill-rule="evenodd" clip-rule="evenodd" d="M67.2929 98.4733C67.7669 101.178 68.1015 106.643 67.5793 110.585C66.4817 112.438 64.8315 114.284 60.337 116.091C59.9618 116.36 59.7134 116.74 60.1165 117.668C64.1572 126.984 78.2895 133.775 92.9617 130.551C99.6565 129.078 114.866 119.209 111.571 117.316C108.534 115.569 103.892 113.795 103.358 110.276C103.066 106.469 103.18 101.003 103.73 97.979L67.2929 98.4733Z" fill="#BF8A84"/>
<path fill-rule="evenodd" clip-rule="evenodd" d="M62.7677 87.6459C61.0262 87.8461 59.7004 86.8347 59.0109 85.4024C59.0616 84.6267 59.2568 83.5747 58.7878 83.0323C57.642 81.6989 56.3948 73.6529 57.3885 72.4869C58.1566 71.587 59.4444 71.8202 60.8614 71.9647C62.1111 72.0762 62.7981 72.8266 63.3533 73.7239L62.7677 87.6459Z" fill="#BF8A84"/>
<path fill-rule="evenodd" clip-rule="evenodd" d="M108.123 86.7724C108.546 87.5329 109.396 87.8701 110.749 87.7104C112.027 87.2135 112.623 86.4505 113.175 85.4593C113.337 84.9346 113.317 84.2907 113.535 83.771C114.346 81.8191 116.577 74.9647 116.433 75.459C116.638 73.7048 117.419 71.6743 115.908 70.5437C114.605 70.2446 113.497 70.4296 112.625 71.2002C111.457 72.7846 110.579 74.5895 109.905 76.549L109.342 78.2373C108.595 79.743 108.255 82.8509 108.123 86.7724Z" fill="#BF8A84"/>
<path fill-rule="evenodd" clip-rule="evenodd" d="M59.605 79.3394C57.9573 78.7462 56.6822 77.8514 55.5719 76.4065C54.3348 73.177 53.9723 70.533 54.2892 68.3453C54.5123 64.406 54.2258 62.1651 53.9901 60.8115C52.8975 58.4641 52.933 55.118 53.151 51.6705C52.9077 51.1559 53.0217 51.2193 52.3576 51.2548C53.037 50.2002 52.8392 49.1127 53.5845 49.0113C53.6935 46.4079 53.9318 44.238 54.3526 42.6714C55.1612 40.6333 55.8938 39.0921 56.5478 38.0933C58.2589 35.4823 60.2235 33.6521 63.7877 32.5975C64.14 30.2274 65.4658 28.6532 66.8853 27.1373C69.5521 25.5681 72.0744 25.2132 74.5003 25.6568C76.3432 22.5059 81.0937 22.1054 84.3689 21.6415C87.6415 21.1776 91.705 22.8811 94.4427 24.3057C97.1779 25.7304 100.816 30.5315 102.139 31.837C103.406 33.0918 107.186 36.836 109.252 40.0021C111.533 43.4927 117.049 50.2357 115.815 52.7858C114.753 52.474 114.299 53.1458 114.203 53.3182C116.492 55.3208 117.949 57.4628 118.487 59.1891C119.891 62.297 119.371 65.0398 119.027 67.5722C118.722 69.8106 118.629 72.5964 118.246 74.2949C117.967 75.5319 116.17 76.0389 116.17 76.0389C116.289 74.4546 116.608 73.5901 116.279 72.1199C116.241 71.3949 115.354 71.2301 114.978 70.8017C113.462 71.0882 113.285 72.4443 112.038 75.1238C112.167 77.1517 111.873 79.0251 110.748 80.5942C110.499 80.1836 109.875 78.8451 109.211 78.0542C109.328 79.6056 108.872 81.3547 108.256 82.9542L107.348 75.4153L104.124 55.0445L75.1037 51.673L68.0692 59.5871L65.4303 76.736L62.107 82.9035C61.2654 81.1063 61.6431 76.6524 61.7673 74.0971C60.5607 73.4355 59.9447 74.5687 60.9409 77.494C59.6354 76.3482 58.7406 74.8906 57.9573 72.8043C56.6087 74.6143 56.6923 76.992 59.605 79.3394Z" fill="#222126"/>
<path fill-rule="evenodd" clip-rule="evenodd" d="M104.813 52.3515C102.714 49.1093 97.8802 47.8545 92.9497 47.0535C80.5057 45.3246 72.3609 49.127 66.0438 54.6482C64.8904 56.0956 64.3783 57.9664 64.3251 59.3834C64.3251 59.3834 64.4341 69.6373 63.5899 72.1596C62.3225 75.9493 62.5379 80.6643 62.9461 86.2032C63.5063 93.8181 66.495 100.036 73.2658 105.109C75.0707 106.508 76.6804 107.157 79.4942 107.847C81.0025 108.214 83.5324 108.447 85.6769 108.539C88.6149 108.665 92.1689 108.204 93.1626 107.37C93.8344 108.168 104.948 99.6713 106.398 93.9652C107.645 89.0651 108.519 84.5631 108.116 79.6934C107.731 75.052 106.565 69.9998 105.987 65.6397C105.386 61.13 106.912 55.5962 104.813 52.3515Z" fill="#BF8A84"/>
<path fill-rule="evenodd" clip-rule="evenodd" d="M61.6384 80.2617C61.864 81.1033 62.4267 75.8307 62.5966 76.8117C62.6777 77.2857 62.7689 77.7674 62.8703 78.2566C64.2291 84.7461 67.3496 92.2825 70.4625 94.8478C73.3599 97.2383 74.4348 97.6819 75.6972 98.521C82.9547 103.353 92.7345 99.8341 95.6168 97.545C97.9033 95.7275 100.57 93.2736 102.18 90.688C104.953 86.2315 105.648 84.196 106.198 80.5634C106.238 80.2972 107.29 72.3578 107.432 71.6784C107.531 71.1942 108.36 80.0158 108.383 79.813C108.616 84.3075 107.724 91.8591 105.83 95.6362C103.541 100.202 99.916 103.908 94.3518 107.056C90.1413 109.373 81.492 109.191 77.6212 107.545C74.5945 106.704 70.0189 103.538 65.9351 97.2738C63.8311 93.4384 61.9071 86.1656 61.6384 80.2617Z" fill="#222126"/>
</g>
</g>
<defs>
<clipPath id="clip0">
<rect width="170.85" height="170.85" fill="white" transform="translate(0.0254326 21.5635)"/>
</clipPath>
</defs>
</svg>
