<svg width="168" height="170" viewBox="0 0 168 170" fill="none" xmlns="http://www.w3.org/2000/svg">
<circle cx="78.3753" cy="78.3753" r="78.3753" fill="#7CBDF0"/>
<g clip-path="url(#clip0)">
<mask id="mask0" mask-type="alpha" maskUnits="userSpaceOnUse" x="0" y="0" width="157" height="157">
<circle cx="78.3753" cy="78.3753" r="78.3753" fill="#65D398"/>
</mask>
<g mask="url(#mask0)">
<path fill-rule="evenodd" clip-rule="evenodd" d="M65.2677 107.91L61.3806 106.744C59.4815 108.08 58.6989 110.274 57.3103 112.125C56.4336 112.509 55.183 112.712 54.6136 112.858C54.2862 112.94 54.1896 113.236 53.7004 113.452C51.923 114.237 50.8506 114.901 49.3555 115.611C48.283 116.12 47.1228 116.352 45.9513 116.898C44.9804 117.35 44.002 118.114 43.0613 118.586C36.9591 121.65 31.2733 124.678 28.86 127.085C28.1688 127.608 27.4337 128.738 26.9391 129.93C25.4841 133.436 24.7291 139.051 23.7774 144.264L18 184.77C62.1031 188.174 106.215 186.392 150.339 178.195L144.219 144.119C143.463 136.48 142.441 128.262 140.146 123.714C140.173 123.239 140.143 122.778 140.049 122.333C135.896 117.271 132.075 115.27 128.251 113.249C121.65 110.861 114.658 109.131 107.472 107.558C106.854 106.917 105.981 106.578 105.535 106.315C104.032 105.432 103.261 104.1 102.339 103.79C101.388 103.755 100.856 104.347 100.422 104.888L65.2677 107.91Z" fill="#CB3251"/>
<path fill-rule="evenodd" clip-rule="evenodd" d="M64.8646 94.1379C66.2431 98.612 66.647 102.464 66.361 106.789C65.0365 108.576 63.865 109.647 62.7411 110.503C65.7088 114.719 72.9336 116.551 80.1811 116.823L80.8797 119.935L84.3354 119.59L87.0685 126.046C88.2802 122.635 89.6737 120.063 91.2466 118.418L91.4147 114.278C97.2171 112.626 101.459 110.145 101.704 106.275C100.858 105.676 99.6969 104.905 99.3683 104.093C98.6596 100.133 98.2194 96.4508 97.8544 93.2034C97.4417 90.9532 97.241 88.9112 97.1858 86.6509L64.8646 94.1379Z" fill="#B67A62"/>
<path fill-rule="evenodd" clip-rule="evenodd" d="M52.1538 69.1604C51.7236 67.4645 51.5054 65.0086 50.7264 63.4056C49.7067 61.3084 48.4737 58.6981 47.6408 56.5181C45.5097 50.9389 44.638 41.643 47.1015 36.079C48.5653 32.7721 51.405 30.6006 53.9826 28.3494C57.062 25.6601 59.242 22.0068 63.099 19.9548C66.7591 18.0068 70.8344 19.564 74.7265 20.0468C77.0369 20.3334 77.8911 19.7887 80.1677 20.3193C81.2389 20.5688 83.1078 21.583 84.8363 22.0457C85.8999 22.3307 87.0125 22.6686 87.3399 22.996C87.8566 23.19 90.3816 22.8541 91.666 24.2922C93.56 26.4135 94.5133 28.8027 95.4703 31.202C96.4788 33.7273 96.4462 38.9547 97.7845 41.1178C99.0238 43.1196 99.6096 44.8116 99.4704 49.2055L99.2182 54.5853C99.5469 55.521 99.6171 56.9672 99.5506 58.6881C99.4716 60.2547 99.5895 61.5141 99.6698 62.8311L98.7328 63.2927L97.3405 52.5984C97.1775 51.7844 96.9579 51.0995 96.6042 50.7257C96.3208 50.3871 95.9144 50.1889 95.439 50.0685C95.1129 48.0327 93.3029 46.3758 93.2452 44.9546C92.6243 44.1669 92.1201 43.3917 91.7526 42.4383C91.158 41.6124 90.8457 40.9156 89.2565 40.9486C88.3922 40.9771 87.4038 41.2171 86.3302 41.602C84.4813 42.6462 82.4343 44.424 78.9009 45.6483C77.0645 47.9512 71.3925 48.1883 68.9767 47.5636C67.5255 46.8512 63.2232 46.9803 61.057 48.4341C59.0865 49.3836 57.6239 50.8637 56.258 53.2017C56.6042 54.7772 55.8616 55.9223 55.75 57.3899L55.3511 59.3805C54.8996 60.7866 55.2395 63.9098 56.0385 68.0315C56.2304 68.8355 56.3796 69.7687 56.4787 70.8562C56.5515 71.3517 56.5703 71.8634 56.4035 72.4429C55.8365 70.791 55.2972 69.7298 54.2235 68.7339C53.9325 68.5771 53.3492 69.1591 52.1538 69.1604Z" fill="#161211"/>
<path fill-rule="evenodd" clip-rule="evenodd" d="M58.3336 81.6556C59.4186 86.501 62.4691 90.4496 65.6312 93.209C68.7921 95.9698 72.5889 97.4587 77.3014 98.2138C81.0806 98.8296 84.4322 97.9328 87.4074 96.3273C89.921 95.1118 91.9091 93.5364 93.7392 92.02C96.3281 88.765 98.6423 85.0723 99.1515 82.9688C99.9518 79.5558 100.027 76.8051 100.099 73.6856C100.233 69.4385 99.9317 65.4385 98.8768 61.6756C98.128 59.1632 98.0691 56.568 97.7768 53.8587C97.2613 51.2221 96.3281 49.4122 95.2682 47.8493C95.2682 47.8493 93.028 43.3275 91.9054 42.0315C90.7865 40.7405 88.4209 39.8049 86.8229 40.1287C85.2249 40.4526 84.4271 42.5294 82.7426 43.4441C80.4748 44.6746 77.7768 46.388 74.9696 47.0365C72.402 47.6285 68.8586 46.9713 67.0662 46.9073C66.1129 46.8722 65.127 46.3629 64.2164 46.6477C62.6309 47.1431 58.932 48.5417 57.5572 49.88C56.6554 50.3755 54.4214 54.0444 55.1953 55.1645C55.8049 56.0475 54.4967 58.1823 54.6685 59.4316C54.9896 61.7646 55.6181 66.6515 56.1787 70.0945C56.7833 73.8086 57.8507 77.6029 58.3336 81.6556Z" fill="#B67A62"/>
<path fill-rule="evenodd" clip-rule="evenodd" d="M55.9703 68.8061C55.9326 69.5248 57.5821 75.2621 58.8188 76.8689C60.048 78.4669 60.4933 80.3258 61.6887 82.0003C62.9944 83.8265 64.6652 83.8943 66.006 85.3693C67.4711 86.9824 67.895 89.999 71.1424 91.4289C72.7944 92.1564 76.8333 92.4688 78.583 92.4612C84.5498 92.4361 89.039 91.4214 92.8383 86.5321C94.435 84.4775 93.1594 82.1846 94.489 79.9595C95.8675 77.6553 98.716 75.1743 99.3244 72.4311C100.022 69.2878 99.0321 62.1884 98.8038 61.4559C98.5592 60.6681 99.5351 63.0037 99.6931 62.4969C100.136 69.3618 100.664 75.9658 99.3821 83.1881C97.7477 87.0363 95.6593 91.1392 90.9694 94.714C89.0302 96.6519 85.6135 98.1069 79.5213 98.5785C75.0108 98.1796 69.1518 96.529 63.1449 92.84C60.9511 90.5421 59.3494 86.2085 57.9872 81.0445L55.1437 68.7622L55.9703 68.8061Z" fill="#161211"/>
<path fill-rule="evenodd" clip-rule="evenodd" d="M99.5074 59.3592C99.8423 58.6869 99.9991 58.081 100.932 58.1024C101.391 58.1124 101.902 58.4209 102.267 58.6304C103.318 59.2312 103.421 59.9637 103.781 61.1353C104.189 62.4636 104.087 63.5674 104.035 64.9296C103.941 67.4834 103.505 71.1798 102.506 73.5956C101.868 75.1422 100.086 74.7534 100.086 74.7534C100.086 74.7534 99.9289 71.9362 100.017 71.1773C100.257 69.0901 100.02 67.9136 99.895 66.2065C99.7407 64.1143 99.456 59.4558 99.5074 59.3592Z" fill="#B67A62"/>
<path fill-rule="evenodd" clip-rule="evenodd" d="M54.5527 68.5295C53.8239 67.6427 52.3137 68.1118 51.1234 68.2272C48.2949 68.5019 47.8245 71.5799 48.2397 74.0083C48.3651 74.7458 49.1127 75.3905 49.4326 76.0566C50.1199 77.4903 51.1999 79.1159 52.2974 80.2661C52.828 80.8205 53.5304 81.3799 54.0409 81.9569C54.5652 82.5489 54.8123 83.373 55.5574 83.6427C56.8568 84.1118 58.6079 83.2175 58.6079 83.2175C58.6079 83.2175 58.3971 81.7888 58.0246 80.7578C57.4251 79.0983 57.2081 77.2068 57.0525 75.442C56.828 72.912 55.5411 69.7323 54.5527 68.5295Z" fill="#B67A62"/>
</g>
</g>
<defs>
<clipPath id="clip0">
<rect width="167.532" height="167.532" fill="white" transform="translate(3.05176e-05 1.75049)"/>
</clipPath>
</defs>
</svg>
