<?xml version="1.0" encoding="UTF-8" standalone="no"?>
<!DOCTYPE svg PUBLIC "-//W3C//DTD SVG 1.1//EN" "http://www.w3.org/Graphics/SVG/1.1/DTD/svg11.dtd">
<svg width="100%" height="100%" viewBox="0 0 1646 499" version="1.1" xmlns="http://www.w3.org/2000/svg" xmlns:xlink="http://www.w3.org/1999/xlink" xml:space="preserve" xmlns:serif="http://www.serif.com/" style="fill-rule:evenodd;clip-rule:evenodd;stroke-linejoin:round;stroke-miterlimit:1.41421;">
    <g transform="matrix(1,0,0,1,-950.504,-354.61)">
        <g transform="matrix(1.17261,0,0,1.17261,199.965,-901.311)">
            <g transform="matrix(0.658896,0,0,0.658896,818.021,1000.14)">
                <path d="M613.206,623.954L511.113,623.954L511.113,470.269C511.113,454.618 504.652,446.793 491.732,446.793C478.993,446.793 472.623,454.618 472.623,470.269L472.623,623.954L370.53,623.954L370.53,472.179C370.53,436.693 382.268,406.802 405.744,382.507C429.22,358.212 457.974,346.065 492.005,346.065C530.949,346.065 562.159,360.168 585.635,388.376C604.015,410.396 613.206,441.06 613.206,480.369L613.206,623.954Z" style="fill:rgb(36,180,172);fill-rule:nonzero;"/>
                <path d="M774.807,351.797L774.807,623.954L672.714,623.954L672.714,351.797L774.807,351.797ZM724.034,230.323C737.864,230.323 749.83,235.191 759.93,244.927C770.03,254.664 775.08,266.174 775.08,279.459C775.08,293.654 770.303,305.3 760.749,314.4C751.195,323.499 738.956,328.048 724.034,328.048C709.111,328.048 696.872,323.499 687.318,314.4C677.764,305.3 672.987,293.654 672.987,279.459C672.987,266.174 678.037,254.664 688.137,244.927C698.237,235.191 710.203,230.323 724.034,230.323Z" style="fill:rgb(36,180,172);fill-rule:nonzero;"/>
                <path d="M980.084,511.761L980.084,605.391C965.344,610.851 951.24,613.581 937.773,613.581C904.834,613.581 876.945,601.115 854.106,576.183C831.267,551.251 819.848,520.769 819.848,484.736C819.848,445.792 833.588,412.944 861.067,386.192C888.547,359.441 922.305,346.065 962.341,346.065C983.633,346.065 1004.01,350.341 1023.49,358.895C1042.96,367.448 1058.25,378.913 1069.35,393.29C1087.91,417.129 1097.19,451.706 1097.19,497.02L1097.19,586.556C1097.19,635.146 1083.41,674.591 1055.84,704.891C1028.27,735.191 992.368,750.341 948.146,750.341C934.679,750.341 917.664,746.975 897.1,740.241L897.1,647.43C910.385,654.709 923.851,658.349 937.5,658.349C955.881,658.349 970.075,652.298 980.084,640.196C990.093,628.094 995.098,610.76 995.098,588.194L995.098,485.828C995.098,457.257 983.542,442.971 960.43,442.971C950.603,442.971 942.004,446.747 934.634,454.299C927.264,461.852 923.578,470.542 923.578,480.369C923.578,490.742 927.082,499.386 934.088,506.301C941.094,513.217 949.784,516.674 960.157,516.674C967.073,516.674 973.715,515.036 980.084,511.761Z" style="fill:rgb(36,180,172);fill-rule:nonzero;"/>
                <path d="M1530.68,623.954L1428.58,623.954L1428.58,477.093C1428.58,465.81 1427.4,457.985 1425.03,453.617C1422.67,449.249 1418.39,447.066 1412.2,447.066C1400.74,447.066 1395.01,457.166 1395.01,477.366L1395.01,623.954L1292.91,623.954L1292.91,477.093C1292.91,465.81 1291.69,457.985 1289.23,453.617C1286.77,449.249 1282.45,447.066 1276.26,447.066C1264.98,447.066 1259.34,457.166 1259.34,477.366L1259.34,623.954L1157.25,623.954L1157.25,456.347C1157.25,425.774 1167.53,399.795 1188.09,378.412C1208.66,357.029 1233.59,346.338 1262.89,346.338C1293.1,346.338 1320.21,359.077 1344.23,384.554C1370.99,359.077 1397.74,346.338 1424.49,346.338C1458.52,346.338 1485.82,358.713 1506.38,383.462C1522.58,402.753 1530.68,430.869 1530.68,467.812L1530.68,623.954Z" style="fill:rgb(36,180,172);fill-rule:nonzero;"/>
                <path d="M1741.68,521.861L1741.68,627.502C1733.31,628.958 1725.67,629.686 1718.76,629.686C1677.81,629.686 1643.69,616.219 1616.39,589.286C1589.09,562.352 1575.44,528.594 1575.44,488.012C1575.44,448.522 1589.23,415.037 1616.8,387.557C1644.37,360.078 1677.9,346.338 1717.39,346.338C1761.43,346.338 1796.14,359.213 1821.53,384.964C1846.92,410.714 1859.61,445.883 1859.61,490.469L1859.61,623.954L1757.52,623.954L1757.52,497.839C1757.52,483.462 1754.02,471.997 1747.01,463.444C1740,454.891 1730.58,450.614 1718.76,450.614C1708.02,450.614 1698.74,454.527 1690.91,462.352C1683.09,470.178 1679.17,479.459 1679.17,490.196C1679.17,501.479 1682.72,510.76 1689.82,518.039C1696.92,525.319 1705.93,528.958 1716.85,528.958C1725.76,528.958 1734.04,526.592 1741.68,521.861Z" style="fill:rgb(36,180,172);fill-rule:nonzero;"/>
            </g>
            <g transform="matrix(0.754245,0,0,0.754245,114.751,367.763)">
                <g transform="matrix(-1.22941e-16,0.669262,-0.661572,-1.21529e-16,1602.23,611.089)">
                    <path d="M665.104,999.209C562.96,999.209 480.157,1082.01 480.157,1184.16C480.157,1286.3 562.96,1369.1 665.104,1369.1L665.104,1327.43C585.974,1327.43 521.827,1263.29 521.827,1184.16C521.827,1105.03 585.974,1040.88 665.104,1040.88L665.104,999.209Z" style="fill:rgb(36,180,172);"/>
                </g>
                <g transform="matrix(-7.16984e-17,0.390308,-0.390308,-7.16984e-17,1589.86,852.223)">
                    <path d="M665.104,999.209C562.96,999.209 480.157,1082.01 480.157,1184.16C480.157,1286.3 562.96,1369.1 665.104,1369.1L665.104,1298.29C602.07,1298.29 550.971,1247.19 550.971,1184.16C550.971,1121.12 602.07,1070.02 665.104,1070.02L665.104,999.209Z" style="fill:rgb(36,180,172);"/>
                </g>
                <g transform="matrix(0.756865,0,0,0.618174,467.862,317.91)">
                    <rect x="588.981" y="1192.35" width="36.389" height="310.836" style="fill:rgb(36,180,172);"/>
                </g>
                <g transform="matrix(0.758608,0,0,0.439309,608.686,586.777)">
                    <rect x="588.981" y="1192.35" width="36.389" height="310.836" style="fill:rgb(36,180,172);"/>
                </g>
                <g transform="matrix(0.757959,0,0,0.618174,250.047,317.91)">
                    <rect x="588.981" y="1192.35" width="36.389" height="310.836" style="fill:rgb(36,180,172);"/>
                </g>
                <g transform="matrix(0.760293,0,0,0.439309,724.399,587.344)">
                    <rect x="588.981" y="1192.35" width="36.389" height="310.836" style="fill:rgb(36,180,172);"/>
                </g>
                <g transform="matrix(1.40259e-16,-0.45812,0.45812,1.40259e-16,455.883,1550.71)">
                    <path d="M665.104,999.209C562.96,999.209 480.157,1082.01 480.157,1184.16C480.157,1286.3 562.96,1369.1 665.104,1369.1L665.104,1308.93C596.19,1308.93 540.324,1253.07 540.324,1184.16C540.324,1115.24 596.19,1059.38 665.104,1059.38L665.104,999.209Z" style="fill:rgb(36,180,172);"/>
                </g>
                <g transform="matrix(-6.41953e-17,-1.36091,1.36091,-6.41953e-17,-663.365,2149.91)">
                    <path d="M665.104,999.209C562.96,999.209 480.157,1082.01 480.157,1184.16C480.157,1286.3 562.96,1369.1 665.104,1369.1L665.104,1348.77C574.191,1348.77 500.492,1275.07 500.492,1184.16C500.492,1093.24 574.191,1019.54 665.104,1019.54L665.104,999.209Z" style="fill:rgb(36,180,172);"/>
                </g>
            </g>
        </g>
    </g>
</svg>
