<svg xmlns="http://www.w3.org/2000/svg" width="1645.479" height="498.836" viewBox="0 0 1645.479 498.836">
  <g id="logo" transform="translate(-950.501 -354.608)">
    <g id="Group_376" data-name="Group 376" transform="translate(199.965 -901.311)">
      <g id="Group_366" data-name="Group 366" transform="translate(959.22 1172.774)">
        <path id="Path_145" data-name="Path 145" d="M473.783,482.087H394.9V363.345q0-18.139-14.974-18.138-14.764,0-14.764,18.138V482.087h-78.88V364.821q0-41.126,27.207-69.284t66.648-28.156q45.134,0,72.342,32.691,21.3,25.52,21.3,71.077Z" fill="#fff"/>
        <path id="Path_146" data-name="Path 146" d="M598.641,271.81V482.087h-78.88V271.81Zm-39.229-93.855a38.615,38.615,0,0,1,27.734,11.284q11.705,11.285,11.705,26.681,0,16.451-11.073,27t-28.367,10.545q-17.295,0-28.368-10.545t-11.073-27q0-15.4,11.705-26.681A38.615,38.615,0,0,1,559.412,177.955Z" fill="#fff"/>
        <path id="Path_147" data-name="Path 147" d="M757.245,395.4v72.342a94.046,94.046,0,0,1-32.691,6.328q-38.175,0-64.644-28.895t-26.469-70.655q0-45.134,31.847-76.138t78.248-31a116.251,116.251,0,0,1,47.246,9.913q22.565,9.913,35.433,26.575,21.51,27.628,21.51,80.145v69.178q0,56.313-31.948,91.429t-83.208,35.116q-15.607,0-39.44-7.8V500.226q15.4,8.436,31.214,8.436,21.3,0,32.9-14.026t11.6-40.178V375.367q0-33.112-26.786-33.113-11.389,0-19.931,8.752t-8.542,20.143a27,27,0,0,0,8.12,20.036,27.535,27.535,0,0,0,20.142,8.015A33.243,33.243,0,0,0,757.245,395.4Z" fill="#fff"/>
        <path id="Path_148" data-name="Path 148" d="M1182.654,482.087h-78.886V368.618q0-13.076-2.743-18.138t-9.913-5.062q-13.282,0-13.282,23.411V482.087H998.945V368.618q0-13.076-2.843-18.138t-10.021-5.062q-13.073,0-13.073,23.411V482.087H894.129v-129.5q0-35.433,23.828-60.215t57.793-24.781q35.012,0,62.846,29.527,31.014-29.527,62.012-29.527,39.439,0,63.271,28.683,18.775,22.357,18.775,65.172Z" fill="#fff"/>
        <path id="Path_149" data-name="Path 149" d="M1345.679,403.207v81.622a104.05,104.05,0,0,1-17.709,1.687q-47.459,0-79.094-31.214t-31.64-78.248q0-45.767,31.956-77.615t77.719-31.847q51.04,0,80.462,29.844t29.422,81.517V482.087h-78.878V384.647q0-16.662-8.12-26.575t-21.827-9.913a30.975,30.975,0,0,0-30.589,30.582q0,13.076,8.228,21.512t20.884,8.436A35.778,35.778,0,0,0,1345.679,403.207Z" fill="#fff"/>
      </g>
      <g id="Group_375" data-name="Group 375" transform="translate(134.558 431.243)">
        <path id="Path_154" data-name="Path 154" d="M9935.015,223.755c61.869-.848,91.534,44.919,96.618,72.04s-5.086,180.523,5.933,208.492,56.784,44.919,68.649,35.6,38.14-28.816,40.682-58.479-27.969-152.555,44.919-164.42,63.563,86.448,61.869,118.654-2.543,148.317-58.479,198.321-161.879,74.582-231.375,42.376S9836.7,568.7,9835.854,504.287s-11.017-208.492,21.188-243.24S9935.015,223.755,9935.015,223.755Z" transform="translate(-9206.023 614.676)" fill="#fff"/>
        <g id="Group_367" data-name="Group 367" transform="translate(1417.059 540.465) rotate(90)">
          <path id="Path_150" data-name="Path 150" d="M393.684,584.649c-60.46,0-109.473,48.448-109.473,108.217s49.012,108.211,109.473,108.211V776.7c-46.838,0-84.808-37.529-84.808-83.829s37.969-83.835,84.808-83.835Z" fill="#fff" fill-rule="evenodd"/>
        </g>
        <g id="Group_368" data-name="Group 368" transform="translate(1406.119 753.731) rotate(90)">
          <path id="Path_151" data-name="Path 151" d="M229.595,344.929a63.843,63.843,0,1,0,0,127.687V448.172a39.4,39.4,0,0,1,0-78.8Z" fill="#fff" fill-rule="evenodd"/>
        </g>
        <g id="Group_369" data-name="Group 369" transform="translate(413.791 281.169)">
          <rect id="Rectangle_199" data-name="Rectangle 199" width="24.359" height="169.943" transform="translate(394.263 651.891)" fill="#fff"/>
        </g>
        <g id="Group_370" data-name="Group 370" transform="translate(538.34 518.963)">
          <rect id="Rectangle_200" data-name="Rectangle 200" width="24.415" height="120.772" transform="translate(395.169 463.274)" fill="#fff"/>
        </g>
        <g id="Group_371" data-name="Group 371" transform="translate(221.149 281.169)">
          <rect id="Rectangle_201" data-name="Rectangle 201" width="24.394" height="169.943" transform="translate(394.831 651.891)" fill="#fff"/>
        </g>
        <g id="Group_372" data-name="Group 372" transform="translate(640.68 519.464)">
          <rect id="Rectangle_202" data-name="Rectangle 202" width="24.469" height="120.772" transform="translate(396.044 463.274)" fill="#fff"/>
        </g>
        <g id="Group_373" data-name="Group 373" transform="translate(403.196 1371.493) rotate(-90)">
          <path id="Path_152" data-name="Path 152" d="M269.483,404.854a74.935,74.935,0,1,0,0,149.87V530.345a50.556,50.556,0,1,1,0-101.111Z" fill="#fff" fill-rule="evenodd"/>
        </g>
        <g id="Group_374" data-name="Group 374" transform="translate(-586.699 1901.443) rotate(-90)">
          <path id="Path_153" data-name="Path 153" d="M800.538,1202.677c-122.943,0-222.608,99.662-222.608,222.613s99.664,222.6,222.608,222.6v-24.47c-109.426,0-198.132-88.708-198.132-198.129s88.706-198.141,198.132-198.141Z" fill="#fff" fill-rule="evenodd"/>
        </g>
      </g>
    </g>
  </g>
</svg>
