<svg width="158" height="160" viewBox="0 0 158 160" fill="none" xmlns="http://www.w3.org/2000/svg">
<circle cx="78.888" cy="79.2047" r="78.3753" fill="#65D398"/>
<g clip-path="url(#clip0)">
<mask id="mask0" mask-type="alpha" maskUnits="userSpaceOnUse" x="0" y="0" width="158" height="158">
<circle cx="78.888" cy="79.2047" r="78.3753" fill="#65D398"/>
</mask>
<g mask="url(#mask0)">
<path fill-rule="evenodd" clip-rule="evenodd" d="M53.3987 117.684C43.508 122.387 33.7646 127.194 24.473 132.325C22.6305 133.347 20.0728 136.06 18.8294 138.81L17.6398 141.722C16.8778 145.143 16.9923 150.744 16.4398 157.388L140.163 159.094C140.238 153.297 141.055 147.536 139.123 142.302C138.453 140.976 138.825 139.606 138.101 136.803C135.425 132.168 129.417 127.817 123.236 124.842C115.705 122.446 108.648 119.843 102.983 116.636L53.3987 117.684Z" fill="#35323D"/>
<path fill-rule="evenodd" clip-rule="evenodd" d="M69.1339 131.248C75.8673 134.171 82.9542 134.307 89.7046 131.289C86.9424 134.698 83.371 140.771 79.8116 146.936C77.5033 141.89 74.1933 138.241 71.0325 134.599C70.3723 133.839 69.8126 131.978 69.1339 131.248Z" fill="#114C8E"/>
<path fill-rule="evenodd" clip-rule="evenodd" d="M92.9686 101.734C94.4694 102.665 96.5165 103.929 97.5519 105.408C98.8742 107.296 99.3466 109.64 100.546 111.611C101.463 113.117 102.223 112.919 102.722 114.584C103.509 117.215 104.23 121.766 104.473 124.498C104.699 127.034 104.975 128.507 105.059 131.069C105.081 131.732 105.359 134.424 104.955 134.957C104.766 135.205 103.535 134.101 103.325 133.961C101.735 132.899 98.089 131.332 96.9563 130.077C95.6493 128.629 96.217 123.517 94.9551 124.213C94.2115 124.623 93.4403 127.087 92.6783 128.072C90.7831 130.521 92.7878 133.891 91.1844 136.619C88.2122 141.678 81.2535 143.52 78.6592 149.002C78.5656 149.2 78.8669 148.617 78.9675 148.422C79.1488 148.071 79.3239 147.716 79.496 147.36C80.0467 146.224 80.7761 145.168 81.479 144.121C83.6264 140.923 85.1349 137.462 87.3559 134.332C89.0323 131.971 90.9906 129.856 92.2842 127.184C94.6875 122.219 93.7094 114.956 93.2071 109.141C92.9123 105.728 92.9686 101.734 92.9686 101.734Z" fill="#46404C"/>
<path fill-rule="evenodd" clip-rule="evenodd" d="M73.8032 137.61C74.5023 138.74 72.1 135.988 68.0797 130.177C65.6158 126.616 64.8605 115.713 61.1554 112.099C61.1095 109.231 61.1467 106.563 60.6576 104.941C59.9631 107.487 58.493 110.437 57.0543 112.644C56.065 114.161 54.5866 115.639 53.9017 117.314C53.3584 118.643 53.6932 120.082 53.6031 121.465C53.4946 123.133 53.0142 124.823 52.5246 126.414C52.2452 127.322 52.0195 128.267 51.6316 129.137C51.2619 129.966 50.6875 130.69 50.3443 131.535C50.2348 131.805 49.7893 133.082 49.9933 133.315C50.0203 133.345 50.458 133.187 50.5288 133.165C51.0342 133.007 51.546 132.877 52.0404 132.686C53.9645 131.94 56.9233 131.473 58.1123 129.644C58.8609 128.493 59.1098 127.075 59.5371 125.789C59.5825 125.653 59.8424 124.607 60.0814 124.627C61.0297 124.705 61.8593 125.705 62.3976 126.39C63.225 127.443 64.0917 128.423 65.1344 129.27C66.2611 130.185 67.6447 130.838 68.3807 132.145C68.9604 133.174 68.7641 134.631 69.6254 135.487C70.7671 136.621 72.979 136.278 73.8032 137.61Z" fill="#46404C"/>
<path fill-rule="evenodd" clip-rule="evenodd" d="M59.929 97.6327C59.929 97.6327 60.4703 101.228 60.5084 102.232C60.5808 104.131 61.0093 110.128 61.1235 111.931C61.2258 113.54 62.0813 114.145 62.4303 115.753C62.9037 117.936 63.7515 123.915 65.2125 126.137C66.4651 128.043 66.9784 129.25 68.8619 131.041C70.9165 132.994 75.9039 133.34 79.3376 133.485C82.7503 133.63 86.8445 132.487 88.8233 131.731C89.8953 131.321 90.9187 129.441 91.2098 128.946C91.2086 128.716 90.9893 127.975 91.2028 127.569C91.564 126.882 92.6346 125.928 93.0107 124.823C93.4779 123.45 93.8995 121.17 94.0062 119.331C94.1302 117.195 94.1442 113.728 94.0107 112.154C93.9459 111.388 93.6061 110.354 93.434 109.605C92.9803 107.629 93.0337 97.1333 93.0337 97.1333L59.929 97.6327Z" fill="#A67666"/>
<path fill-rule="evenodd" clip-rule="evenodd" d="M51.4489 68.9844C50.9623 64.0471 50.8967 58.8268 51.2254 53.3407C51.655 51.91 52.3042 51.144 53.0757 50.7484C51.7483 49.8597 50.1846 49.141 48.9905 47.7537C47.6289 46.4437 47.0711 45.0586 47.0911 43.6193C48.4572 39.5374 53.7073 33.1574 60.0686 30.125C64.2251 27.162 69.8945 26.4856 75.8627 26.6814C80.7742 26.2227 85.1802 26.8774 88.3203 28.6624C90.9301 30.1103 92.9506 31.1021 93.4656 33.2355C95.0922 33.4567 96.5331 33.8496 98.0445 34.9037C99.013 35.9875 99.5204 36.9363 99.3852 37.6971C99.8885 37.2444 101.481 38.4746 103.855 40.7167C104.569 42.9653 104.741 45.4542 104.525 48.3124C104.983 49.381 105.378 50.7307 105.643 52.6703C105.134 52.4585 104.644 52.7139 104.19 53.5642C104.454 53.8132 104.673 54.9441 104.597 56.2995C104.132 56.522 102.989 56.1503 101.955 58.1456C101.797 61.1328 101.766 64.6757 101.955 68.3833C100.876 68.3197 99.8878 68.1658 99.248 69.0854C98.8396 69.2708 98.8032 70.603 98.887 72.2343C98.6516 73.6066 98.4096 74.981 97.821 76.4709L96.2114 81.5137C96.5242 77.5265 96.9662 73.4515 95.632 70.2391L87.485 50.4077L66.1146 49.0108L57.5603 56.0124C55.4558 58.0151 55.8686 62.0145 55.3598 64.0958C54.9096 65.9453 55.0006 69.5935 55.1535 73.9027C54.8849 73.8234 55.1882 76.6021 55.6137 80.0615C54.7509 78.4469 54.0877 76.3589 53.6517 74.1589C53.0411 72.6803 52.76 71.4361 52.7694 70.5541C52.3461 70.1627 52.1478 70.2942 51.4489 69.6873" fill="#262626"/>
<path fill-rule="evenodd" clip-rule="evenodd" d="M98.0611 72.5671C97.9022 71.2161 98.3043 70.1406 99.197 69.0159C99.5206 68.6083 100.389 68.2748 100.912 68.2439C102.907 68.1262 103.138 69.18 103.207 70.2805C103.31 71.9407 103.2 74.1741 103.205 75.2347C103.219 78.4374 103.854 80.5938 102.53 83.6314C101.716 85.4989 100.633 85.797 98.7413 86.106C97.5732 86.2971 96.8594 86.5206 96.3897 85.2769C96.2293 84.8524 95.9676 84.1021 96.0599 83.7002C96.2809 82.7402 96.0013 82.1096 96.3286 81.2062C96.9487 79.4945 96.9384 77.552 97.6131 75.8693C98.0644 74.7449 98.114 72.7521 98.0611 72.5671Z" fill="#B98877"/>
<path fill-rule="evenodd" clip-rule="evenodd" d="M52.7014 70.334C51.5146 69.0167 50.6815 68.9194 49.2839 70.8493C49.1594 71.0212 49.0422 71.975 49.034 72.1838C48.9943 73.1932 48.9427 74.1229 49.0232 75.2727C49.0731 75.9796 48.9297 76.6134 49.1148 77.3121C49.3535 78.2131 49.2619 78.7004 49.3121 79.6518C49.3632 80.6291 49.3645 81.872 49.4605 82.8478C49.562 83.8807 50.1983 85.1924 50.765 86.0395C51.3921 86.9761 52.7271 87.364 53.8842 87.465C54.9769 87.5605 56.6374 86.9843 56.6604 85.7893C56.6988 83.7786 56.395 81.9064 55.7681 79.995C55.3286 78.6555 54.4696 77.4957 54.1059 76.1143C53.65 74.3828 52.7014 70.334 52.7014 70.334Z" fill="#B98877"/>
<path fill-rule="evenodd" clip-rule="evenodd" d="M58.6137 50.47C62.5717 45.4796 81.6508 45.2546 88.5202 49.0211C91.7002 50.7648 93.6413 54.315 94.1372 58.3394C94.3627 60.1692 95.1614 62.4962 95.45 63.6428C95.5827 64.1703 95.7687 64.5061 95.8685 65.22C96.0346 66.4098 96.1075 68.0967 96.1741 70.1525C96.224 71.6997 96.737 73.5276 96.7233 75.1349C96.7101 76.7031 96.4746 78.6102 96.3664 80.0717C95.9231 86.063 96.304 92.4809 94.3308 95.8568C91.8062 100.176 86.3556 104.549 82.8384 106.05C79.3663 107.531 73.782 107.418 70.0016 105.861C64.6879 103.672 60.8509 99.3837 58.9151 96.985C57.7672 95.5624 57.4259 92.3323 57.1309 90.5281C56.8001 88.5045 56.7086 85.7779 56.41 83.7211C56.1401 81.8616 55.6335 80.0425 55.3399 78.1867C54.3978 72.2305 54.9538 59.9928 55.8909 55.9832C56.3574 53.9873 57.3399 52.0756 58.6137 50.47Z" fill="#B98877"/>
<path fill-rule="evenodd" clip-rule="evenodd" d="M51.3599 67.8203C51.6036 67.378 51.9399 66.7148 52.2906 66.41L54.1713 65.8525C62.3544 62.3657 68.2044 62.7209 72.5358 65.7954C73.9386 65.4953 76.1261 65.5519 77.8564 65.5093C82.8186 60.9252 90.5361 61.783 93.9441 63.853L95.4199 63.85L96.3354 63.9645C97.8175 64.4921 99.2268 65.9355 99.4248 66.8824L100.512 68.0265L99.5695 68.6596L96.6215 66.3102C96.0109 66.0263 95.4005 65.9198 94.7906 66.3673C94.6365 67.8886 95.0772 72.2312 92.4856 74.9386C89.4493 78.1099 83.0753 77.8764 80.5333 75.5177C79.0065 74.101 77.4553 71.3804 77.2271 67.3685C76.4743 66.0223 73.1249 66.7145 72.5358 67.4543C72.6275 68.2136 72.5535 74.0758 69.0395 76.6135C65.7337 79.0006 61.1773 78.6589 57.9332 76.9567C55.9527 75.9178 55.3157 72.6508 54.4 68.942L53.6562 68.0837L52.6265 69.2281C51.8496 69.2166 51.4642 68.7 51.3599 67.8203Z" fill="#262626"/>
<path fill-rule="evenodd" clip-rule="evenodd" d="M56.1748 66.763C59.7993 63.0095 70.377 64.0275 71.4498 67.1062C72.3186 69.5985 70.9255 74.5817 68.761 76.2027C66.5966 77.8236 60.8263 77.9852 58.5776 76.6031C56.4931 75.322 54.1981 68.8096 56.1748 66.763Z" fill="#B98877"/>
<path fill-rule="evenodd" clip-rule="evenodd" d="M78.4268 66.7093C80.1457 62.3747 91.1 62.0614 93.3896 65.422C94.8517 67.5681 93.7128 72.8244 91.9593 74.6473C89.2702 77.4424 83.7143 76.8535 81.3754 75.2908C79.3183 73.9164 77.2645 69.6404 78.4268 66.7093Z" fill="#B98877"/>
</g>
</g>
<defs>
<clipPath id="clip0">
<rect width="132.699" height="132.699" fill="white" transform="translate(12.1239 26.5398)"/>
</clipPath>
</defs>
</svg>
